<mxfile host="app.diagrams.net" modified="2023-04-04T13:52:01.020Z" agent="Mozilla/5.0 (Windows NT 10.0; Win64; x64) AppleWebKit/537.36 (KHTML, like Gecko) Chrome/111.0.0.0 Safari/537.36" etag="Nt5IwVyq9m92HWrToEed" version="21.1.2" type="device">
  <diagram id="-L3iBQajqbCqiKy16nGl" name="Page-1">
    <mxGraphModel dx="1221" dy="668" grid="1" gridSize="10" guides="1" tooltips="1" connect="1" arrows="1" fold="1" page="1" pageScale="1" pageWidth="827" pageHeight="1169" math="0" shadow="0">
      <root>
        <mxCell id="0" />
        <mxCell id="1" parent="0" />
        <mxCell id="aXKypCnKO94ALb1SA6uv-12" value="" style="verticalLabelPosition=bottom;verticalAlign=top;html=1;shape=mxgraph.basic.rect;fillColor2=none;strokeWidth=1;size=20;indent=5;dashed=1;dashPattern=1 2;" parent="1" vertex="1">
          <mxGeometry x="429" y="227" width="111" height="73" as="geometry" />
        </mxCell>
        <mxCell id="aXKypCnKO94ALb1SA6uv-3" value="" style="verticalLabelPosition=bottom;verticalAlign=top;html=1;shape=mxgraph.basic.rect;fillColor2=none;strokeWidth=1;size=20;indent=5;dashed=1;dashPattern=1 2;" parent="1" vertex="1">
          <mxGeometry x="57" y="190" width="168" height="69" as="geometry" />
        </mxCell>
        <mxCell id="aXKypCnKO94ALb1SA6uv-1" value="Client-A1" style="ellipse;whiteSpace=wrap;html=1;fillColor=#d5e8d4;strokeColor=#82b366;" parent="1" vertex="1">
          <mxGeometry x="73.25" y="193" width="60" height="20" as="geometry" />
        </mxCell>
        <mxCell id="aXKypCnKO94ALb1SA6uv-2" value="Client-A2" style="ellipse;whiteSpace=wrap;html=1;fillColor=#d5e8d4;strokeColor=#82b366;" parent="1" vertex="1">
          <mxGeometry x="73.25" y="226" width="60" height="20" as="geometry" />
        </mxCell>
        <mxCell id="aXKypCnKO94ALb1SA6uv-4" value="" style="verticalLabelPosition=bottom;verticalAlign=top;html=1;shape=mxgraph.basic.rect;fillColor2=none;strokeWidth=1;size=20;indent=5;dashed=1;dashPattern=1 2;" parent="1" vertex="1">
          <mxGeometry x="55" y="290" width="173" height="60" as="geometry" />
        </mxCell>
        <mxCell id="aXKypCnKO94ALb1SA6uv-5" value="Client-B1" style="ellipse;whiteSpace=wrap;html=1;fillColor=#d5e8d4;strokeColor=#82b366;" parent="1" vertex="1">
          <mxGeometry x="71" y="291.75" width="58" height="16.5" as="geometry" />
        </mxCell>
        <mxCell id="aXKypCnKO94ALb1SA6uv-6" value="Client-B2" style="ellipse;whiteSpace=wrap;html=1;fillColor=#d5e8d4;strokeColor=#82b366;" parent="1" vertex="1">
          <mxGeometry x="71" y="320" width="58" height="18" as="geometry" />
        </mxCell>
        <mxCell id="aXKypCnKO94ALb1SA6uv-13" value="" style="verticalLabelPosition=bottom;verticalAlign=top;html=1;shape=mxgraph.basic.rect;fillColor2=none;strokeWidth=1;size=20;indent=5;dashed=1;dashPattern=1 2;" parent="1" vertex="1">
          <mxGeometry x="236" y="192" width="184" height="160" as="geometry" />
        </mxCell>
        <mxCell id="aXKypCnKO94ALb1SA6uv-7" value="Gateway-A" style="rounded=1;whiteSpace=wrap;html=1;fillColor=#ffe6cc;strokeColor=#d79b00;" parent="1" vertex="1">
          <mxGeometry x="182" y="182" width="62.5" height="26" as="geometry" />
        </mxCell>
        <mxCell id="aXKypCnKO94ALb1SA6uv-8" value="Gateway-B" style="rounded=1;whiteSpace=wrap;html=1;fillColor=#ffe6cc;strokeColor=#d79b00;" parent="1" vertex="1">
          <mxGeometry x="182" y="332" width="65" height="24" as="geometry" />
        </mxCell>
        <mxCell id="aXKypCnKO94ALb1SA6uv-9" value="Router" style="rounded=1;whiteSpace=wrap;html=1;fillColor=#dae8fc;strokeColor=#6c8ebf;" parent="1" vertex="1">
          <mxGeometry x="273" y="257" width="65" height="26" as="geometry" />
        </mxCell>
        <mxCell id="aXKypCnKO94ALb1SA6uv-10" value="Gateway-S" style="rounded=1;whiteSpace=wrap;html=1;fillColor=#ffe6cc;strokeColor=#d79b00;" parent="1" vertex="1">
          <mxGeometry x="380" y="255" width="70" height="26" as="geometry" />
        </mxCell>
        <mxCell id="aXKypCnKO94ALb1SA6uv-11" value="Server-S1" style="ellipse;whiteSpace=wrap;html=1;fillColor=#d5e8d4;strokeColor=#82b366;" parent="1" vertex="1">
          <mxGeometry x="461" y="250" width="70" height="25" as="geometry" />
        </mxCell>
        <mxCell id="aXKypCnKO94ALb1SA6uv-14" value="" style="endArrow=none;html=1;rounded=0;exitX=1;exitY=0.5;exitDx=0;exitDy=0;entryX=0.5;entryY=1;entryDx=0;entryDy=0;" parent="1" target="aXKypCnKO94ALb1SA6uv-9" edge="1">
          <mxGeometry width="50" height="50" relative="1" as="geometry">
            <mxPoint x="247" y="344" as="sourcePoint" />
            <mxPoint x="483" y="280" as="targetPoint" />
          </mxGeometry>
        </mxCell>
        <mxCell id="aXKypCnKO94ALb1SA6uv-15" value="" style="endArrow=none;html=1;rounded=0;exitX=1;exitY=0.5;exitDx=0;exitDy=0;" parent="1" source="aXKypCnKO94ALb1SA6uv-9" edge="1">
          <mxGeometry width="50" height="50" relative="1" as="geometry">
            <mxPoint x="291.48" y="373.02" as="sourcePoint" />
            <mxPoint x="380" y="270" as="targetPoint" />
          </mxGeometry>
        </mxCell>
        <mxCell id="aXKypCnKO94ALb1SA6uv-16" value="" style="endArrow=none;html=1;rounded=0;entryX=0.5;entryY=0;entryDx=0;entryDy=0;exitX=1;exitY=0.75;exitDx=0;exitDy=0;" parent="1" source="aXKypCnKO94ALb1SA6uv-7" target="aXKypCnKO94ALb1SA6uv-9" edge="1">
          <mxGeometry width="50" height="50" relative="1" as="geometry">
            <mxPoint x="244.5" y="195" as="sourcePoint" />
            <mxPoint x="412" y="237" as="targetPoint" />
          </mxGeometry>
        </mxCell>
        <mxCell id="aXKypCnKO94ALb1SA6uv-17" value="&lt;b&gt;Site A&lt;/b&gt;&lt;br&gt;fc00:4300:a::/64" style="text;html=1;strokeColor=none;fillColor=none;align=center;verticalAlign=middle;whiteSpace=wrap;rounded=0;fontColor=#0066CC;" parent="1" vertex="1">
          <mxGeometry x="57" y="160" width="87.25" height="30" as="geometry" />
        </mxCell>
        <mxCell id="aXKypCnKO94ALb1SA6uv-18" value="&lt;b&gt;Site B&lt;/b&gt;&lt;br&gt;fc00:4300:b::/64" style="text;html=1;strokeColor=none;fillColor=none;align=center;verticalAlign=middle;whiteSpace=wrap;rounded=0;fontColor=#0066CC;" parent="1" vertex="1">
          <mxGeometry x="57" y="259.75" width="90" height="30" as="geometry" />
        </mxCell>
        <mxCell id="aXKypCnKO94ALb1SA6uv-20" value="&lt;span style=&quot;border-color: var(--border-color);&quot;&gt;&lt;b&gt;Public Internet&lt;/b&gt;&lt;br&gt;&lt;font color=&quot;#ff3333&quot;&gt;eth0&lt;/font&gt;&lt;br&gt;&lt;/span&gt;" style="text;html=1;strokeColor=none;fillColor=none;align=center;verticalAlign=middle;whiteSpace=wrap;rounded=0;fontColor=#0066CC;" parent="1" vertex="1">
          <mxGeometry x="331" y="182" width="95" height="20" as="geometry" />
        </mxCell>
        <mxCell id="aXKypCnKO94ALb1SA6uv-21" value="" style="endArrow=none;html=1;rounded=0;exitX=0.5;exitY=0;exitDx=0;exitDy=0;" parent="1" source="aXKypCnKO94ALb1SA6uv-9" edge="1">
          <mxGeometry width="50" height="50" relative="1" as="geometry">
            <mxPoint x="291.48" y="373.02" as="sourcePoint" />
            <mxPoint x="373" y="192" as="targetPoint" />
          </mxGeometry>
        </mxCell>
        <mxCell id="aXKypCnKO94ALb1SA6uv-22" value="&lt;b&gt;Cloud S&lt;br&gt;&lt;/b&gt;fc00:4300:c::/64" style="text;html=1;strokeColor=none;fillColor=none;align=center;verticalAlign=middle;whiteSpace=wrap;rounded=0;fontColor=#0066CC;" parent="1" vertex="1">
          <mxGeometry x="429" y="197" width="90" height="30" as="geometry" />
        </mxCell>
        <mxCell id="aXKypCnKO94ALb1SA6uv-23" value="&lt;font color=&quot;#000000&quot;&gt;fc00:4300:a::3&lt;/font&gt;" style="text;html=1;strokeColor=none;fillColor=none;align=center;verticalAlign=middle;whiteSpace=wrap;rounded=0;fontColor=#999999;" parent="1" vertex="1">
          <mxGeometry x="73" y="217" width="59.75" height="6" as="geometry" />
        </mxCell>
        <mxCell id="aXKypCnKO94ALb1SA6uv-24" value="&lt;font color=&quot;#000000&quot;&gt;fc00:4300:a::4&lt;/font&gt;" style="text;html=1;strokeColor=none;fillColor=none;align=center;verticalAlign=middle;whiteSpace=wrap;rounded=0;fontColor=#999999;" parent="1" vertex="1">
          <mxGeometry x="71.5" y="250" width="61" height="5" as="geometry" />
        </mxCell>
        <mxCell id="aXKypCnKO94ALb1SA6uv-25" value="&lt;font color=&quot;#000000&quot;&gt;fc00:4300:b::3&lt;/font&gt;" style="text;html=1;strokeColor=none;fillColor=none;align=center;verticalAlign=middle;whiteSpace=wrap;rounded=0;fontColor=#999999;" parent="1" vertex="1">
          <mxGeometry x="76" y="310" width="48" height="8" as="geometry" />
        </mxCell>
        <mxCell id="aXKypCnKO94ALb1SA6uv-26" value="&lt;font color=&quot;#000000&quot;&gt;fc00:4300:b::4&lt;/font&gt;" style="text;html=1;strokeColor=none;fillColor=none;align=center;verticalAlign=middle;whiteSpace=wrap;rounded=0;fontColor=#999999;" parent="1" vertex="1">
          <mxGeometry x="76.75" y="340.5" width="46.5" height="7" as="geometry" />
        </mxCell>
        <mxCell id="aXKypCnKO94ALb1SA6uv-27" value="&lt;font color=&quot;#000000&quot;&gt;fc00:4300:c::3&lt;/font&gt;" style="text;html=1;strokeColor=none;fillColor=none;align=center;verticalAlign=middle;whiteSpace=wrap;rounded=0;fontColor=#999999;" parent="1" vertex="1">
          <mxGeometry x="470" y="289.75" width="52" height="8.25" as="geometry" />
        </mxCell>
        <mxCell id="aXKypCnKO94ALb1SA6uv-28" value="&lt;font color=&quot;#ff9933&quot;&gt;eth0&lt;br&gt;&lt;/font&gt;&lt;font color=&quot;#000000&quot;&gt;fc00:4300:a::2&lt;/font&gt;" style="text;html=1;strokeColor=none;fillColor=none;align=center;verticalAlign=middle;whiteSpace=wrap;rounded=0;fontColor=#999999;" parent="1" vertex="1">
          <mxGeometry x="152" y="212" width="58" height="20" as="geometry" />
        </mxCell>
        <mxCell id="aXKypCnKO94ALb1SA6uv-29" value="&lt;font color=&quot;#000000&quot;&gt;fc00:4300:b::2&lt;/font&gt;" style="text;html=1;strokeColor=none;fillColor=none;align=center;verticalAlign=middle;whiteSpace=wrap;rounded=0;fontColor=#999999;" parent="1" vertex="1">
          <mxGeometry x="156.25" y="289" width="58" height="20" as="geometry" />
        </mxCell>
        <mxCell id="aXKypCnKO94ALb1SA6uv-30" value="&lt;font color=&quot;#000000&quot;&gt;fc00:4300:c::2&lt;/font&gt;&lt;br&gt;&lt;span style=&quot;color: rgb(255, 153, 51);&quot;&gt;eth0&lt;/span&gt;" style="text;html=1;strokeColor=none;fillColor=none;align=center;verticalAlign=middle;whiteSpace=wrap;rounded=0;fontColor=#999999;" parent="1" vertex="1">
          <mxGeometry x="439" y="230" width="58" height="20" as="geometry" />
        </mxCell>
        <mxCell id="aXKypCnKO94ALb1SA6uv-31" value="fc00:4300:aaea::2&lt;br&gt;&lt;font color=&quot;#ff3333&quot;&gt;eth1&lt;/font&gt;" style="text;html=1;strokeColor=none;fillColor=none;align=center;verticalAlign=middle;whiteSpace=wrap;rounded=0;fontColor=#009999;" parent="1" vertex="1">
          <mxGeometry x="236" y="222.5" width="100" height="20" as="geometry" />
        </mxCell>
        <mxCell id="aXKypCnKO94ALb1SA6uv-34" value="&lt;font color=&quot;#ff3333&quot;&gt;eth2&lt;/font&gt;&lt;br&gt;fc00:4300:aaeb::2" style="text;html=1;strokeColor=none;fillColor=none;align=center;verticalAlign=middle;whiteSpace=wrap;rounded=0;fontColor=#009999;" parent="1" vertex="1">
          <mxGeometry x="236" y="300.25" width="99" height="20" as="geometry" />
        </mxCell>
        <mxCell id="aXKypCnKO94ALb1SA6uv-35" value="fc00:4300:aaec::2&lt;br&gt;&lt;font color=&quot;#ff3333&quot;&gt;eth3&lt;/font&gt;" style="text;html=1;strokeColor=none;fillColor=none;align=center;verticalAlign=middle;whiteSpace=wrap;rounded=0;fontColor=#009999;" parent="1" vertex="1">
          <mxGeometry x="300.5" y="241.5" width="99.5" height="20" as="geometry" />
        </mxCell>
        <mxCell id="aXKypCnKO94ALb1SA6uv-37" value="&lt;span style=&quot;color: rgb(255, 153, 51);&quot;&gt;eth1&lt;/span&gt;&lt;br&gt;&lt;font color=&quot;#000000&quot;&gt;fc00:4300:aaec::aaec&lt;/font&gt;" style="text;html=1;strokeColor=none;fillColor=none;align=center;verticalAlign=middle;whiteSpace=wrap;rounded=0;fontColor=#999999;" parent="1" vertex="1">
          <mxGeometry x="321" y="277" width="70" height="20" as="geometry" />
        </mxCell>
        <mxCell id="aXKypCnKO94ALb1SA6uv-38" value="&lt;span style=&quot;color: rgb(255, 153, 51);&quot;&gt;eth1&lt;/span&gt;&lt;br&gt;&lt;font color=&quot;#000000&quot;&gt;fc00:4300:aaea::aaea&lt;/font&gt;" style="text;html=1;strokeColor=none;fillColor=none;align=center;verticalAlign=middle;whiteSpace=wrap;rounded=0;fontColor=#999999;" parent="1" vertex="1">
          <mxGeometry x="245" y="182" width="118" height="20" as="geometry" />
        </mxCell>
        <mxCell id="aXKypCnKO94ALb1SA6uv-40" value="&lt;font color=&quot;#000000&quot;&gt;fc00:4300:aaeb::aaeb&lt;/font&gt;&lt;br&gt;&lt;span style=&quot;color: rgb(255, 153, 51);&quot;&gt;eth1&lt;/span&gt;" style="text;html=1;strokeColor=none;fillColor=none;align=center;verticalAlign=middle;whiteSpace=wrap;rounded=0;fontColor=#999999;" parent="1" vertex="1">
          <mxGeometry x="249" y="342.5" width="117" height="20" as="geometry" />
        </mxCell>
        <mxCell id="8ddHJlEhwti3hABUpaHy-3" value="&lt;b&gt;&lt;font color=&quot;#000000&quot;&gt;fc00:4300:a::99&lt;/font&gt;&lt;/b&gt;" style="text;html=1;strokeColor=none;fillColor=none;align=center;verticalAlign=middle;whiteSpace=wrap;rounded=0;fontColor=#999999;" parent="1" vertex="1">
          <mxGeometry x="150.5" y="232" width="61" height="20" as="geometry" />
        </mxCell>
        <mxCell id="8ddHJlEhwti3hABUpaHy-4" value="&lt;b&gt;&lt;font color=&quot;#000000&quot;&gt;fc00:4300:b::99&lt;/font&gt;&lt;/b&gt;&lt;br&gt;&lt;font color=&quot;#ff9933&quot;&gt;eth0&lt;/font&gt;" style="text;html=1;strokeColor=none;fillColor=none;align=center;verticalAlign=middle;whiteSpace=wrap;rounded=0;fontColor=#999999;" parent="1" vertex="1">
          <mxGeometry x="153.25" y="309" width="61" height="20" as="geometry" />
        </mxCell>
        <mxCell id="i7L1LLbgNS6fSiVqBptD-4" value="&lt;font style=&quot;font-size: 8px;&quot;&gt;&lt;font style=&quot;font-size: 8px;&quot; color=&quot;#ff0080&quot;&gt;port&amp;nbsp;&lt;/font&gt;&lt;font style=&quot;font-size: 8px;&quot; color=&quot;#ff0080&quot;&gt;8080&lt;/font&gt;&lt;/font&gt;" style="text;html=1;strokeColor=none;fillColor=none;align=center;verticalAlign=middle;whiteSpace=wrap;rounded=0;fontColor=#999999;" parent="1" vertex="1">
          <mxGeometry x="468.5" y="274" width="55" height="12" as="geometry" />
        </mxCell>
      </root>
    </mxGraphModel>
  </diagram>
</mxfile>
